<?xml version="1.0" encoding="iso-8859-1"?>
<!-- Generator: Adobe Illustrator 19.0.0, SVG Export Plug-In . SVG Version: 6.00 Build 0)  -->
<svg version="1.1" id="Layer_1" xmlns="http://www.w3.org/2000/svg" xmlns:xlink="http://www.w3.org/1999/xlink" x="0px" y="0px"
	 viewBox="0 0 512 512" style="enable-background:new 0 0 512 512;" xml:space="preserve">
<g>
	<path style="fill:#9FC7D1;" d="M288,416c-4.424,0-8-3.584-8-8v-32h-48v32c0,4.416-3.576,8-8,8h-80v96h104v-28.688l-21.656-21.656
		l11.312-11.312L256,468.688l18.344-18.344l11.312,11.312L264,483.312V512h112v-96H288z"/>
	<path style="fill:#9FC7D1;" d="M176.616,123.08c-0.408-0.976-0.616-2.024-0.616-3.08V24l-16,12v96.928l38.584,42.872
		L176.616,123.08z"/>
</g>
<path style="fill:#FFFFFF;" d="M231.952,216H232v88h48v-88h0.048c0-1.032,0.152-2.072,0.568-3.08L320,118.4V48h-16v48
	c0,2.88-1.544,5.544-4.056,6.96C298.72,103.656,297.36,104,296,104c-1.424,0-2.848-0.376-4.12-1.144L256,81.328l-35.88,21.528
	c-1.272,0.768-2.696,1.144-4.12,1.144c-1.36,0-2.72-0.344-3.944-1.04C209.544,101.544,208,98.88,208,96V48h-16v70.4l39.384,94.52
	C231.8,213.928,231.952,214.968,231.952,216z M256,112c4.416,0,8,3.584,8,8s-3.584,8-8,8c-4.416,0-8-3.584-8-8S251.584,112,256,112z
	 M256,152c4.416,0,8,3.584,8,8s-3.584,8-8,8c-4.416,0-8-3.584-8-8S251.584,152,256,152z M256,192c4.416,0,8,3.584,8,8s-3.584,8-8,8
	c-4.416,0-8-3.584-8-8S251.584,192,256,192z M256,232c4.416,0,8,3.584,8,8s-3.584,8-8,8c-4.416,0-8-3.584-8-8S251.584,232,256,232z
	 M256,272c4.416,0,8,3.584,8,8s-3.584,8-8,8c-4.416,0-8-3.584-8-8S251.584,272,256,272z"/>
<polygon style="fill:#EEC97B;" points="247.12,68 224,54.128 224,81.872 "/>
<path style="fill:#9FC7D1;" d="M216,219.064l-69.944-77.72C144.736,139.88,144,137.976,144,136V40H96c-30.872,0-56,25.12-56,56v264
	h56V120h16v256c0,13.232,10.768,24,24,24h80V219.064z M136,304h56v16h-56V304z"/>
<polygon style="fill:#EEC97B;" points="288,54.128 264.88,68 288,81.872 "/>
<rect x="232" y="320" style="fill:#E87B5A;" width="48" height="40"/>
<g>
	<path style="fill:#9FC7D1;" d="M216,32.008c1.424,0,2.848,0.368,4.12,1.136L256,54.672l35.88-21.528
		c1.272-0.768,2.696-1.136,4.12-1.136V32h24V16H192v16L216,32.008L216,32.008z"/>
	<path style="fill:#9FC7D1;" d="M352,132.928V36l-16-12v96c0,1.056-0.208,2.104-0.616,3.08l-21.968,52.72L352,132.928z"/>
	<path style="fill:#9FC7D1;" d="M416,40h-48v96c0,1.976-0.736,3.88-2.056,5.352L296,219.064V400h80c13.232,0,24-10.768,24-24V120h16
		v240h56V96C472,65.12,446.872,40,416,40z M320,304h56v16h-56V304z"/>
</g>
<g>
	<path style="fill:#3C4A53;" d="M416,24h-53.336L332.8,1.6c-1.408-1.064-3.096-1.536-4.8-1.536V0H184v0.072
		c-1.696,0-3.392,0.48-4.8,1.536L149.336,24H96c-39.704,0-72,32.304-72,72v272c0,4.416,3.576,8,8,8h64
		c0,19.312,13.768,35.472,32,39.192V512h8h8v-96h80c4.424,0,8-3.584,8-8v-32h48v32c0,4.416,3.576,8,8,8h88v96h8h8v-99.392
		c14.104-6.192,24-20.248,24-36.608h64c4.424,0,8-3.584,8-8V96C488,56.304,455.704,24,416,24z M335.384,123.08
		c0.408-0.976,0.616-2.024,0.616-3.08V24l16,12v96.928L313.416,175.8L335.384,123.08z M192,16h128v16h-24v0.008
		c-1.424,0-2.848,0.368-4.12,1.136L256,54.672l-35.88-21.528c-1.272-0.768-2.696-1.136-4.12-1.136V32h-24V16z M288,54.128v27.744
		L264.88,68L288,54.128z M247.12,68L224,81.872V54.128L247.12,68z M192,48h16v48c0,2.88,1.544,5.544,4.056,6.96
		c1.224,0.696,2.584,1.04,3.944,1.04c1.424,0,2.848-0.376,4.12-1.144L256,81.328l35.88,21.528c1.272,0.768,2.696,1.144,4.12,1.144
		c1.36,0,2.72-0.344,3.944-1.04C302.456,101.544,304,98.88,304,96V48h16v70.4l-39.384,94.52c-0.416,1-0.568,2.048-0.568,3.08H280v88
		h-48v-88h-0.048c0-1.032-0.152-2.072-0.568-3.08L192,118.4V48z M160,36l16-12v96c0,1.056,0.208,2.104,0.616,3.08l21.968,52.72
		L160,132.928V36z M136,400c-13.232,0-24-10.768-24-24V120H96v240H40V96c0-30.88,25.128-56,56-56h48v96
		c0,1.976,0.736,3.88,2.056,5.352L216,219.064V400H136z M232,360v-40h48v40H232z M472,360h-56V120h-16v256c0,13.232-10.768,24-24,24
		h-80V219.064l69.944-77.72c1.32-1.464,2.056-3.368,2.056-5.344V40h48c30.872,0,56,25.12,56,56V360z"/>
	<polygon style="fill:#3C4A53;" points="285.656,461.656 274.344,450.344 256,468.688 237.656,450.344 226.344,461.656 248,483.312 
		248,512 264,512 264,483.312 	"/>
	<circle style="fill:#3C4A53;" cx="256" cy="120" r="8"/>
	<circle style="fill:#3C4A53;" cx="256" cy="160" r="8"/>
	<circle style="fill:#3C4A53;" cx="256" cy="200" r="8"/>
	<circle style="fill:#3C4A53;" cx="256" cy="240" r="8"/>
	<circle style="fill:#3C4A53;" cx="256" cy="280" r="8"/>
	<rect x="320" y="304" style="fill:#3C4A53;" width="56" height="16"/>
	<rect x="136" y="304" style="fill:#3C4A53;" width="56" height="16"/>
</g>
<g>
</g>
<g>
</g>
<g>
</g>
<g>
</g>
<g>
</g>
<g>
</g>
<g>
</g>
<g>
</g>
<g>
</g>
<g>
</g>
<g>
</g>
<g>
</g>
<g>
</g>
<g>
</g>
<g>
</g>
</svg>
