<?xml version="1.0" encoding="iso-8859-1"?>
<!-- Generator: Adobe Illustrator 19.0.0, SVG Export Plug-In . SVG Version: 6.00 Build 0)  -->
<svg version="1.1" id="Layer_1" xmlns="http://www.w3.org/2000/svg" xmlns:xlink="http://www.w3.org/1999/xlink" x="0px" y="0px"
	 viewBox="0 0 512 512" style="enable-background:new 0 0 512 512;" xml:space="preserve">
<polygon style="fill:#D7D5D9;" points="69.654,27.73 504.374,27.73 504.374,318.279 7.626,318.279 7.626,27.73 "/>
<path style="fill:#FF5023;" d="M254.708,80.725c50.965,0,92.28,41.315,92.28,92.28s-41.315,92.28-92.28,92.28
	s-92.28-41.315-92.28-92.28c0-35.116,19.614-65.651,48.484-81.245C210.913,91.759,233.254,80.725,254.708,80.725z"/>
<rect x="7.626" y="318.274" style="fill:#57545C;" width="496.75" height="41.942"/>
<path style="opacity:0.25;fill:#2F2D30;enable-background:new    ;" d="M459.081,27.73v206.704v4.064
	c0,26.079-21.141,47.221-47.221,47.221H6.335v32.561v41.943h496.748v-41.943V27.73H459.081z"/>
<polygon style="fill:#57545C;" points="201.33,389.475 206.364,358.951 303.539,358.951 320.366,456.219 189.536,456.219 
	193.993,430.994 "/>
<polygon style="fill:#FFFFFF;" points="231.577,123.281 301.474,173.005 231.577,222.728 "/>
<rect x="147.942" y="456.221" style="fill:#3E3B43;" width="217.592" height="28.051"/>
<g style="opacity:0.53;">
	<polygon style="fill:#2F2D30;" points="303.416,358.951 206.241,358.951 201.206,389.475 201.165,389.709 308.737,389.709 	"/>
</g>
<polygon style="opacity:0.37;fill:#FFFFFF;enable-background:new    ;" points="201.936,318.279 121.908,318.279 307.481,27.73 
	387.508,27.73 "/>
<path d="M504.374,20.104H69.654c-4.212,0-7.626,3.413-7.626,7.626s3.414,7.626,7.626,7.626h427.094v275.298H15.252V27.73
	c0-4.213-3.414-7.626-7.626-7.626S0,23.517,0,27.73v290.549v41.943c0,4.213,3.414,7.626,7.626,7.626h189.781l-3.586,20.3
	c-0.733,4.147,2.036,8.104,6.183,8.836c4.148,0.735,8.104-2.036,8.836-6.183l3.921-22.191h84.382l14.132,79.983H198.628
	l2.875-16.274c0.733-4.146-2.036-8.104-6.183-8.836c-4.147-0.735-8.104,2.036-8.837,6.183l-3.344,18.926h-35.194
	c-4.212,0-7.626,3.413-7.626,7.626v28.051c0,4.213,3.414,7.626,7.626,7.626h217.592c4.212,0,7.626-3.413,7.626-7.626v-28.051
	c0-4.213-3.414-7.626-7.626-7.626h-38.775l-14.267-80.745h191.878c4.212,0,7.626-3.413,7.626-7.626v-41.943V27.73
	C512,23.517,508.586,20.104,504.374,20.104z M357.911,476.644h-202.34v-12.799h33.965h130.83h37.546L357.911,476.644
	L357.911,476.644z M496.748,352.597H15.252v-26.692h481.496V352.597z"/>
<path d="M231.576,230.354c1.557,0,3.105-0.476,4.421-1.412l69.897-49.723c2.011-1.431,3.205-3.746,3.205-6.214
	c0-2.468-1.195-4.783-3.205-6.214l-69.897-49.724c-2.326-1.655-5.381-1.873-7.917-0.563c-2.536,1.308-4.13,3.923-4.13,6.777v99.448
	c0,2.854,1.593,5.469,4.13,6.777C229.182,230.074,230.381,230.354,231.576,230.354z M239.203,138.065l49.116,34.94l-49.116,34.94
	V138.065z"/>
<path d="M214.538,98.469c3.706-2.002,5.087-6.628,3.085-10.334s-6.63-5.087-10.334-3.085
	c-32.374,17.488-52.486,51.191-52.486,87.955c0,55.088,44.818,99.906,99.906,99.906s99.906-44.818,99.906-99.906
	s-44.818-99.906-99.906-99.906c-4.212,0-7.626,3.413-7.626,7.626s3.414,7.626,7.626,7.626c46.679,0,84.654,37.976,84.654,84.654
	s-37.976,84.654-84.654,84.654s-84.654-37.976-84.654-84.654C170.054,141.851,187.099,113.29,214.538,98.469z"/>
<g>
</g>
<g>
</g>
<g>
</g>
<g>
</g>
<g>
</g>
<g>
</g>
<g>
</g>
<g>
</g>
<g>
</g>
<g>
</g>
<g>
</g>
<g>
</g>
<g>
</g>
<g>
</g>
<g>
</g>
</svg>
