<?xml version="1.0" encoding="iso-8859-1"?>
<!-- Generator: Adobe Illustrator 19.0.0, SVG Export Plug-In . SVG Version: 6.00 Build 0)  -->
<svg version="1.1" id="Layer_1" xmlns="http://www.w3.org/2000/svg" xmlns:xlink="http://www.w3.org/1999/xlink" x="0px" y="0px"
	 viewBox="0 0 511.999 511.999" style="enable-background:new 0 0 511.999 511.999;" xml:space="preserve">
<g>
	<path style="fill:#C12A1C;" d="M144.698,358.951v38.954v50.084h-27.824h-44.52h-5.566c-6.122,0-11.13-5.008-11.13-11.13V225.393
		h38.954h22.26h16.694c6.122,0,11.13,5.008,11.13,11.13v105.734v16.694H144.698z"/>
	<path style="fill:#C12A1C;" d="M456.333,436.86c0,6.122-5.008,11.13-11.13,11.13h-5.564h-44.52h-27.824v-50.084v-38.954v-21.48
		V236.523c0-6.122,5.008-11.13,11.13-11.13h16.694h22.26h38.954V436.86z"/>
	<path style="fill:#C12A1C;" d="M367.294,337.47v21.48H144.698v-16.694c0,0,5.564-33.39,111.298-33.39
		S367.294,337.47,367.294,337.47z"/>
</g>
<path style="fill:#F23222;" d="M278.256,8.362c133.558,0,139.123,94.604,139.123,94.604v122.428h-22.26h-16.694
	c-6.122,0-11.13,5.008-11.13,11.13V337.47c0,0-5.564-28.603-111.298-28.603s-111.298,33.39-111.298,33.39V236.523
	c0-6.122-5.008-11.13-11.13-11.13h-16.694H94.614V102.965c0,0,5.565-94.604,139.123-94.604h22.26H278.256z"/>
<polygon style="fill:#E7ECED;" points="439.639,447.99 439.639,503.638 395.119,503.638 395.119,475.814 395.119,447.99 "/>
<g>
	<rect x="144.697" y="397.903" style="fill:#F23222;" width="222.598" height="50.084"/>
	<rect x="144.697" y="358.949" style="fill:#F23222;" width="222.598" height="38.954"/>
</g>
<polygon style="fill:#AFB6BB;" points="395.119,447.99 395.119,475.814 116.874,475.814 116.874,447.99 144.698,447.99 
	367.294,447.99 "/>
<polygon style="fill:#E7ECED;" points="116.874,475.814 116.874,503.638 72.354,503.638 72.354,447.99 116.874,447.99 "/>
<path style="fill:#D83021;" d="M378.424,225.393h16.694h22.26V102.965c0,0-5.566-94.604-139.123-94.604h-22.259h-22.26
	c-77.305,0-111.728,31.694-127.012,58.393c33.871,118.02,135.727,207.127,260.57,222.337v-52.569
	C367.294,230.402,372.303,225.393,378.424,225.393z"/>
<path d="M425.741,217.031V102.965l-0.014-0.491c-0.064-1.07-1.765-26.499-21.183-51.89C372.573,8.776,318.221,0,278.256,0h-22.26
	h-8.362h-13.898c-34.451,0-63.833,6.175-87.328,18.355l7.697,14.846c21.093-10.934,47.885-16.478,79.631-16.478h13.898v25.028
	h16.723V16.723h13.898c52.206,0,90.046,14.577,112.467,43.326c15.868,20.346,18.105,41.126,18.294,43.233V217.03h-30.592
	c-10.749,0-19.492,8.744-19.492,19.492v81.233c-1.23-0.702-2.542-1.404-3.961-2.098c-20.541-10.054-53.841-15.154-98.975-15.154
	c-45.322,0-78.782,5.988-99.448,17.797c-1.24,0.709-2.396,1.423-3.488,2.137v-83.914c0-10.749-8.744-19.492-19.49-19.492h-30.592
	V103.268c0.235-2.808,3.692-35.995,35.652-60.313l-10.125-13.31c-39.277,29.886-42.133,71.088-42.235,72.828l-0.014,0.245V217.03
	H47.301v219.829c0,9.795,7.271,17.904,16.695,19.266v55.874h61.243v-27.824h261.522v27.824h61.243v-55.874
	c9.423-1.363,16.694-9.472,16.694-19.266V217.031H425.741z M255.996,317.228c84.621,0,100.632,18.382,102.936,21.951v11.41H153.06
	v-7.004C154.789,339.9,169.006,317.228,255.996,317.228z M66.789,439.627c-1.501,0-2.767-1.268-2.767-2.767V283.84h47.288v-16.723
	H64.022v-33.362h69.548c1.501,0,2.767,1.269,2.767,2.768v203.104H66.789z M108.512,495.277H80.716V456.35h27.796V495.277z
	 M125.236,467.453V456.35h119.631v-16.723H153.06v-33.361h119.632v-16.723H153.06v-22.231h205.873v22.231h-36.158v16.723h36.158
	v33.361h-86.239v16.723h114.064v11.102H125.236z M375.656,439.627V236.523c0-1.501,1.269-2.768,2.768-2.768h69.547v33.362h-47.287
	v16.723h47.287v153.02c0,1.501-1.268,2.767-2.768,2.767L375.656,439.627L375.656,439.627z M431.277,495.277h-27.796V456.35h27.796
	V495.277z"/>
<polygon points="247.634,64.009 247.634,166.281 225.041,188.873 236.868,200.699 255.996,181.57 277.907,203.482 289.734,191.656 
	264.358,166.28 264.358,64.009 "/>
<g>
	<rect x="283.824" y="389.541" style="fill:#FFFFFF;" width="27.825" height="16.723"/>
	<rect x="128.007" y="105.736" style="fill:#FFFFFF;" width="22.26" height="16.723"/>
</g>
<rect x="150.26" y="83.474" width="22.26" height="16.723"/>
<rect x="150.26" y="127.989" style="fill:#FFFFFF;" width="22.26" height="16.723"/>
<rect x="317.214" y="61.214" width="22.26" height="16.723"/>
<rect x="339.468" y="83.474" style="fill:#FFFFFF;" width="22.26" height="16.723"/>
<g>
</g>
<g>
</g>
<g>
</g>
<g>
</g>
<g>
</g>
<g>
</g>
<g>
</g>
<g>
</g>
<g>
</g>
<g>
</g>
<g>
</g>
<g>
</g>
<g>
</g>
<g>
</g>
<g>
</g>
</svg>
