<?xml version="1.0" encoding="iso-8859-1"?>
<!-- Generator: Adobe Illustrator 19.0.0, SVG Export Plug-In . SVG Version: 6.00 Build 0)  -->
<svg version="1.1" id="Layer_1" xmlns="http://www.w3.org/2000/svg" xmlns:xlink="http://www.w3.org/1999/xlink" x="0px" y="0px"
	 viewBox="0 0 512 512" style="enable-background:new 0 0 512 512;" xml:space="preserve">
<rect x="45.863" y="195.747" style="fill:#CFDCE5;" width="420.017" height="293.661"/>
<rect x="45.863" y="195.747" style="fill:#BAC6CC;" width="420.017" height="31.589"/>
<polygon style="fill:#FCD577;" points="503.097,195.747 8.646,195.747 52.964,102.501 69.332,68.069 442.411,68.069 "/>
<polygon style="fill:#EAC36E;" points="110.538,68.069 97.341,125.549 52.964,102.501 69.332,68.069 "/>
<rect x="97.341" y="22.592" style="fill:#FF6F52;" width="79.558" height="102.957"/>
<rect x="97.341" y="22.592" style="fill:#CFDCE5;" width="79.558" height="31.729"/>
<rect x="86.811" y="258.925" style="fill:#4EBFED;" width="138.056" height="120.506"/>
<polygon style="fill:#92DDF4;" points="224.867,258.93 224.867,379.436 128.544,379.436 169.013,258.93 "/>
<rect x="73.357" y="379.431" style="fill:#DCE8EF;" width="164.965" height="29.249"/>
<rect x="286.875" y="258.925" style="fill:#4EBFED;" width="138.056" height="120.506"/>
<polygon style="fill:#92DDF4;" points="424.934,258.93 424.934,379.436 328.61,379.436 369.08,258.93 "/>
<rect x="273.421" y="379.431" style="fill:#DCE8EF;" width="164.965" height="29.249"/>
<path d="M202.182,76.843h234.812l15.837,33.318c1.502,3.161,4.649,5.01,7.93,5.01c1.262,0,2.546-0.274,3.761-0.852
	c4.377-2.08,6.238-7.315,4.158-11.691l-18.216-38.326c-1.453-3.058-4.538-5.007-7.924-5.007H202.182
	c-4.847,0-8.775,3.929-8.775,8.775C193.407,72.916,197.336,76.843,202.182,76.843z"/>
<path d="M511.15,191.98l-32.609-68.608c-2.08-4.377-7.316-6.237-11.691-4.158c-4.377,2.08-6.238,7.315-4.158,11.691l26.647,56.067
	H22.661L75.005,76.843h13.69v48.706c0,4.846,3.928,8.775,8.775,8.775h79.558c4.847,0,8.775-3.929,8.775-8.775V22.592
	c0-4.846-3.928-8.775-8.775-8.775H97.47c-4.847,0-8.775,3.929-8.775,8.775v36.702H69.461c-3.387,0-6.471,1.949-7.924,5.009
	L0.85,191.98c-1.292,2.718-1.101,5.909,0.508,8.454c1.608,2.545,4.408,4.088,7.418,4.088h448.459v276.112H54.766V222.802
	c0-4.846-3.928-8.775-8.775-8.775s-8.775,3.929-8.775,8.775v266.606c0,4.846,3.928,8.775,8.775,8.775h420.017
	c4.847,0,8.775-3.929,8.775-8.775V204.522h28.442c3.009,0,5.81-1.543,7.418-4.088C512.252,197.889,512.442,194.699,511.15,191.98z
	 M106.245,116.774V63.102h62.008v53.672H106.245z M168.253,31.367v14.186h-62.008V31.367H168.253z"/>
<path d="M233.771,258.925c0-4.846-3.928-8.775-8.775-8.775H86.94c-4.847,0-8.775,3.929-8.775,8.775v111.732h-4.68
	c-4.847,0-8.775,3.929-8.775,8.775v29.249c0,4.846,3.928,8.775,8.775,8.775H88.11c4.847,0,8.775-3.929,8.775-8.775
	c0-4.846-3.928-8.775-8.775-8.775h-5.85v-11.7h147.416v11.7H111.509c-4.847,0-8.775,3.929-8.775,8.775
	c0,4.846,3.928,8.775,8.775,8.775h126.941c4.847,0,8.775-3.929,8.775-8.775v-29.249c0-4.846-3.928-8.775-8.775-8.775h-4.68V258.925z
	 M216.221,310.403h-51.478V267.7h51.478V310.403z M147.193,267.7v42.704H95.715V267.7H147.193z M95.715,327.953h51.478v42.704
	H95.715V327.953z M164.743,370.657v-42.704h51.478v42.704H164.743z"/>
<path d="M433.835,258.925c0-4.846-3.928-8.775-8.775-8.775H287.004c-4.847,0-8.775,3.929-8.775,8.775v111.732h-4.68
	c-4.847,0-8.775,3.929-8.775,8.775v29.249c0,4.846,3.928,8.775,8.775,8.775h164.965c4.847,0,8.775-3.929,8.775-8.775v-29.249
	c0-4.846-3.928-8.775-8.775-8.775h-4.68V258.925z M347.257,267.7v42.704h-51.478V267.7H347.257z M295.779,327.953h51.478v42.704
	h-51.478V327.953z M429.74,399.906H282.324v-11.7H429.74V399.906z M364.807,370.657v-42.704h20.277c4.847,0,8.775-3.929,8.775-8.775
	c0-4.846-3.928-8.775-8.775-8.775h-20.277V267.7h51.478v42.704h-7.802c-4.847,0-8.775,3.929-8.775,8.775
	c0,4.846,3.928,8.775,8.775,8.775h7.802v42.704H364.807z"/>
<g>
</g>
<g>
</g>
<g>
</g>
<g>
</g>
<g>
</g>
<g>
</g>
<g>
</g>
<g>
</g>
<g>
</g>
<g>
</g>
<g>
</g>
<g>
</g>
<g>
</g>
<g>
</g>
<g>
</g>
</svg>
