<?xml version="1.0" encoding="iso-8859-1"?>
<!-- Generator: Adobe Illustrator 19.0.0, SVG Export Plug-In . SVG Version: 6.00 Build 0)  -->
<svg version="1.1" id="Layer_1" xmlns="http://www.w3.org/2000/svg" xmlns:xlink="http://www.w3.org/1999/xlink" x="0px" y="0px"
	 viewBox="0 0 512 512" style="enable-background:new 0 0 512 512;" xml:space="preserve">
<g>
	
		<rect x="153.914" y="61.752" transform="matrix(-0.8361 -0.5485 0.5485 -0.8361 204.8321 432.3267)" style="fill:#666666;" width="26.156" height="247.632"/>
	
		<rect x="221.213" y="172.486" transform="matrix(-0.5485 -0.8361 0.8361 -0.5485 379.1295 575.8416)" style="fill:#666666;" width="247.632" height="26.156"/>
</g>
<path style="fill:#E54728;" d="M462.08,505.543H49.92c-27.57,0-49.92-22.349-49.92-49.92V310.253c0-27.57,22.35-49.92,49.92-49.92
	H462.08c27.57,0,49.92,22.35,49.92,49.92v145.372C512,483.194,489.651,505.543,462.08,505.543z"/>
<path style="fill:#F95428;" d="M49.92,476.77c-11.661,0-21.147-9.486-21.147-21.147V310.253c0-11.661,9.486-21.147,21.147-21.147
	H462.08c11.661,0,21.147,9.486,21.147,21.147v145.372c0,11.661-9.486,21.147-21.147,21.147H49.92V476.77z"/>
<g>
	<path style="fill:#FFFFFF;" d="M121.857,343.483h3.751c6.105,0,11.072,4.967,11.072,11.072c0,5.417,4.392,9.809,9.809,9.809
		c5.417,0,9.809-4.392,9.809-9.809c0-16.922-13.768-30.69-30.69-30.69h-3.751c-18.991,0-34.441,15.45-34.441,34.441
		c0,18.991,15.45,34.441,34.441,34.441c8.174,0,14.823,6.649,14.823,14.823s-6.649,14.822-14.823,14.822h-3.751
		c-6.105,0-11.072-4.966-11.072-11.071c0-5.417-4.392-9.809-9.809-9.809s-9.809,4.392-9.809,9.809
		c0,16.922,13.768,30.689,30.69,30.689h3.751c18.991,0,34.441-15.45,34.441-34.44s-15.45-34.441-34.441-34.441
		c-8.174,0-14.823-6.649-14.823-14.823C107.034,350.132,113.683,343.483,121.857,343.483z"/>
	<path style="fill:#FFFFFF;" d="M330.522,408.688c-5.417,0-9.809,4.392-9.809,9.809v3.896h-29.645v-88.72
		c0-5.417-4.392-9.809-9.809-9.809s-9.809,4.392-9.809,9.809v98.527c0,5.417,4.392,9.809,9.809,9.809h49.263
		c5.417,0,9.809-4.392,9.809-9.809v-13.705C340.331,413.08,335.939,408.688,330.522,408.688z"/>
	<path style="fill:#FFFFFF;" d="M414.776,359.903c5.417,0,9.809-4.392,9.809-9.809v-16.42c0-5.417-4.392-9.809-9.809-9.809h-49.264
		c-5.417,0-9.809,4.392-9.809,9.809v98.527c0,5.417,4.392,9.809,9.809,9.809h49.264c5.417,0,9.809-4.392,9.809-9.809v-13.705
		c0-5.417-4.392-9.809-9.809-9.809s-9.809,4.392-9.809,9.809v3.896h-29.646v-29.645h17.982c5.417,0,9.809-4.392,9.809-9.809
		s-4.392-9.809-9.809-9.809h-17.982v-29.647h29.646v6.61C404.968,355.511,409.359,359.903,414.776,359.903z"/>
	<path style="fill:#FFFFFF;" d="M211.258,324.503c-18.815,0-34.122,15.307-34.122,34.122v72.941c0,5.417,4.392,9.809,9.809,9.809
		c5.417,0,9.809-4.392,9.809-9.809v-23.027h29.008v23.027c0,5.417,4.392,9.809,9.809,9.809s9.809-4.392,9.809-9.809v-72.941
		C245.38,339.81,230.073,324.503,211.258,324.503z M196.754,388.919v-30.294c0-7.998,6.507-14.504,14.504-14.504
		c7.998,0,14.504,6.507,14.504,14.504v30.294H196.754z"/>
</g>
<path style="fill:#F95428;" d="M256,102.255c-26.411,0-47.899-21.488-47.899-47.899S229.589,6.457,256,6.457
	s47.899,21.487,47.899,47.899S282.411,102.255,256,102.255z M256,32.614c-11.989,0-21.742,9.753-21.742,21.742
	S244.011,76.098,256,76.098c11.989,0,21.742-9.754,21.742-21.742S267.988,32.614,256,32.614z"/>
<g>
</g>
<g>
</g>
<g>
</g>
<g>
</g>
<g>
</g>
<g>
</g>
<g>
</g>
<g>
</g>
<g>
</g>
<g>
</g>
<g>
</g>
<g>
</g>
<g>
</g>
<g>
</g>
<g>
</g>
</svg>
