<?xml version="1.0" encoding="iso-8859-1"?>
<!-- Generator: Adobe Illustrator 19.0.0, SVG Export Plug-In . SVG Version: 6.00 Build 0)  -->
<svg version="1.1" id="Layer_1" xmlns="http://www.w3.org/2000/svg" xmlns:xlink="http://www.w3.org/1999/xlink" x="0px" y="0px"
	 viewBox="0 0 512 512" style="enable-background:new 0 0 512 512;" xml:space="preserve">
<g>
	<g>
		<path d="M512,274.732v-37.463H399.61l-24.976-87.415h-81.171v-24.976h68.683V87.415H49.951v37.463h68.683v24.976H37.463v74.927H0
			v112.39h37.463v37.463H75.28c3.107,28.096,26.917,49.951,55.842,49.951s52.735-21.855,55.842-49.951h138.073
			c3.107,28.096,26.917,49.951,55.842,49.951s52.735-21.855,55.842-49.951H512v-62.439h-37.463v-37.463H512z M74.927,237.268
			v-49.951h62.439v49.951H74.927z M131.122,396.488c-15.519,0-28.098-12.579-28.098-28.098c0-15.519,12.579-28.098,28.098-28.098
			s28.098,12.579,28.098,28.098C159.219,383.909,146.641,396.488,131.122,396.488z M237.268,237.268h-62.439v-49.951h62.439V237.268
			z M256,149.854h-99.902v-24.976H256V149.854z M274.732,237.268v-49.951h71.644l14.272,49.951H274.732z M380.878,396.488
			c-15.519,0-28.098-12.579-28.098-28.098c0-15.519,12.579-28.098,28.098-28.098s28.098,12.579,28.098,28.098
			C408.976,383.909,396.397,396.488,380.878,396.488z"/>
	</g>
</g>
<g>
</g>
<g>
</g>
<g>
</g>
<g>
</g>
<g>
</g>
<g>
</g>
<g>
</g>
<g>
</g>
<g>
</g>
<g>
</g>
<g>
</g>
<g>
</g>
<g>
</g>
<g>
</g>
<g>
</g>
</svg>
